<?xml version="1.0" standalone="no"?>
<!DOCTYPE svg PUBLIC "-//W3C//DTD SVG 20010904//EN"
 "http://www.w3.org/TR/2001/REC-SVG-20010904/DTD/svg10.dtd">
<svg version="1.0" xmlns="http://www.w3.org/2000/svg"
 width="1010.000000pt" height="840.000000pt" viewBox="0 0 1010.000000 840.000000"
 preserveAspectRatio="xMidYMid meet">

<g transform="translate(0.000000,840.000000) scale(0.100000,-0.100000)"
fill="#000000" stroke="none">
<path d="M3014 6426 c-130 -42 -236 -131 -295 -248 -62 -123 -59 -37 -59
-1599 l0 -1428 -212 -3 c-237 -3 -251 -7 -282 -73 -19 -38 -22 -175 -6 -269
15 -92 69 -195 137 -263 68 -68 129 -105 220 -133 64 -20 92 -20 2683 -20
2591 0 2619 0 2683 20 91 28 152 65 220 133 68 68 122 171 137 263 16 94 13
231 -6 269 -31 66 -45 70 -281 73 l-213 3 0 1428 c0 1562 3 1476 -59 1599 -60
118 -166 207 -298 249 l-74 23 -2112 0 -2112 -1 -71 -23z m4309 -246 c60 -23
104 -64 139 -130 l23 -45 3 -1427 2 -1428 -2290 0 -2290 0 2 1428 3 1427 24
47 c32 62 77 104 137 128 48 19 102 19 2121 20 2048 0 2073 0 2126 -20z
m-2763 -3335 c78 -79 43 -75 640 -75 597 0 562 -4 640 75 l44 45 1057 0 1056
0 -8 -45 c-16 -86 -81 -159 -168 -190 -39 -13 -341 -15 -2621 -15 -2280 0
-2582 2 -2621 15 -87 31 -152 104 -168 190 l-8 45 1056 0 1057 0 44 -45z"/>
<path d="M4712 6077 c-30 -30 -43 -67 -24 -67 13 0 82 74 82 88 0 22 -26 13
-58 -21z"/>
<path d="M4787 6052 c-46 -47 -60 -82 -33 -82 17 0 107 101 103 114 -7 22 -25
14 -70 -32z"/>
<path d="M4852 6007 c-62 -63 -75 -87 -46 -87 18 0 133 119 134 138 0 26 -28
10 -88 -51z"/>
<path d="M4451 5936 l-84 -84 22 -63 c11 -35 21 -66 21 -70 0 -4 -15 -3 -34 2
-41 11 -116 -3 -161 -31 -16 -10 -105 -94 -196 -187 -131 -133 -170 -178 -184
-215 -51 -137 44 -284 190 -296 93 -8 130 17 328 216 164 166 176 181 192 236
13 45 15 67 7 97 -5 21 -7 39 -3 39 4 0 35 -10 70 -21 l63 -22 84 84 c46 46
84 89 84 95 0 7 -41 26 -92 43 -50 17 -102 40 -114 52 -13 13 -37 62 -54 115
-18 52 -37 94 -44 94 -6 0 -49 -38 -95 -84z m108 -38 l21 -62 -57 -58 c-32
-32 -60 -58 -64 -58 -3 0 -14 27 -24 60 l-18 61 58 59 c33 33 60 60 61 60 1 0
12 -28 23 -62z m10 -184 c-50 -50 -66 -61 -76 -52 -12 9 -2 23 48 74 50 50 66
61 76 52 12 -9 2 -23 -48 -74z m170 11 l53 -17 -60 -61 -61 -61 -60 19 c-34
10 -61 21 -61 24 0 12 115 121 125 118 5 -2 34 -12 64 -22z m-319 -60 c58 -30
93 -89 93 -160 0 -40 -23 -115 -36 -115 -1 0 -60 58 -131 129 -127 127 -128
129 -105 142 56 29 125 31 179 4z m15 -314 c-13 -14 -25 -6 -99 68 -77 76
-106 92 -106 58 0 -7 36 -48 80 -92 63 -63 77 -82 68 -93 -9 -11 -36 11 -140
115 l-128 127 42 43 42 43 128 -127 c113 -113 126 -129 113 -142z m-225 24
l125 -125 -90 -90 -90 -90 -127 127 -128 128 87 87 c48 49 90 88 93 88 3 0 61
-56 130 -125z m-210 -210 c63 -63 111 -117 107 -121 -4 -4 -28 -9 -54 -11 -87
-8 -173 57 -189 143 -7 37 2 104 14 104 4 0 59 -52 122 -115z"/>
<path d="M4174 5539 c-8 -14 11 -33 25 -25 16 10 13 36 -3 36 -8 0 -18 -5 -22
-11z"/>
<path d="M3999 5394 c-24 -25 -24 -26 -4 -40 21 -16 41 -13 38 5 -2 6 2 11 7
11 15 0 12 26 -3 39 -11 8 -19 5 -38 -15z"/>
<path d="M4042 5348 c-16 -16 -15 -26 2 -43 12 -12 16 -11 30 4 19 21 9 36
-12 18 -13 -10 -14 -8 -8 11 8 25 5 27 -12 10z"/>
<path d="M4087 5312 c-28 -30 -20 -49 8 -22 25 24 32 40 17 40 -5 0 -16 -8
-25 -18z"/>
<path d="M4105 5290 c-10 -11 -15 -23 -12 -27 8 -7 47 25 47 39 0 14 -16 9
-35 -12z"/>
<path d="M4125 5250 c3 -5 8 -10 11 -10 2 0 4 5 4 10 0 6 -5 10 -11 10 -5 0
-7 -4 -4 -10z"/>
<path d="M4155 5240 c-18 -20 -18 -21 0 -38 17 -16 17 -16 12 0 -4 12 -2 15 9
11 10 -4 12 0 8 11 -5 13 -2 15 12 9 17 -6 17 -5 5 10 -17 22 -24 21 -46 -3z"/>
<path d="M4195 5200 c-18 -20 -18 -21 0 -38 17 -16 17 -16 12 0 -4 12 -2 15 9
11 10 -4 12 0 8 11 -5 13 -2 15 12 9 17 -6 17 -5 5 10 -17 22 -24 21 -46 -3z"/>
<path d="M4873 5920 c-44 -49 -53 -70 -30 -70 16 0 107 91 107 108 0 26 -37 9
-77 -38z"/>
<path d="M5902 5487 c-49 -49 -63 -70 -60 -88 2 -15 11 -25 24 -27 28 -4 146
123 142 153 -6 40 -41 28 -106 -38z"/>
<path d="M6036 5431 c-89 -91 -99 -113 -63 -135 16 -10 31 2 108 84 91 97 107
132 64 138 -15 2 -46 -23 -109 -87z"/>
<path d="M6161 5364 c-84 -86 -111 -121 -109 -137 2 -14 11 -23 24 -25 16 -2
48 25 130 113 60 63 111 120 112 126 5 13 -17 39 -33 39 -7 0 -63 -52 -124
-116z"/>
<path d="M5342 5227 c-89 -89 -162 -169 -162 -177 0 -8 18 -70 41 -138 23 -68
39 -125 37 -127 -2 -3 -20 0 -39 6 -19 5 -70 10 -114 11 -91 0 -168 -22 -243
-71 -26 -17 -196 -180 -377 -363 -243 -245 -337 -346 -354 -381 -50 -105 -63
-215 -37 -312 79 -298 417 -428 671 -259 28 18 197 181 376 361 286 288 330
336 357 393 50 104 60 227 27 331 -4 10 -2 19 2 19 5 0 63 -18 128 -40 65 -22
126 -40 135 -40 21 0 340 321 340 342 0 26 -31 41 -201 97 -148 49 -157 54
-207 104 -49 50 -55 61 -107 216 -57 170 -67 191 -94 191 -9 0 -89 -73 -179
-163z m208 -81 l41 -125 -115 -115 c-64 -64 -119 -116 -124 -116 -4 0 -26 54
-47 120 l-39 120 119 120 c66 66 121 120 122 120 1 0 20 -56 43 -124z m120
-221 l24 -26 -124 -124 -124 -125 -28 27 -28 27 122 123 c68 68 125 123 129
123 3 0 16 -11 29 -25z m214 -115 c66 -22 121 -42 123 -44 7 -7 -225 -236
-239 -236 -23 0 -238 74 -238 82 0 9 221 236 230 237 3 1 59 -17 124 -39z
m-647 -112 c65 -24 150 -99 185 -165 62 -113 52 -276 -24 -376 -12 -16 -37 7
-267 237 l-254 254 44 25 c100 58 205 66 316 25z m63 -642 l-29 -30 -161 160
c-88 87 -165 161 -171 162 -16 6 -39 -19 -39 -42 0 -14 53 -74 157 -178 l158
-158 -28 -27 -27 -28 -252 253 -253 252 85 85 85 85 252 -252 253 -253 -30
-29z m-448 54 c221 -222 248 -253 236 -267 -7 -10 -87 -91 -177 -181 l-164
-164 -253 253 c-139 139 -251 256 -249 259 14 16 351 350 353 350 2 0 116
-113 254 -250z m-415 -412 c128 -128 233 -236 233 -240 0 -4 -26 -15 -57 -24
-257 -75 -514 182 -439 439 9 31 20 57 24 57 4 0 112 -105 239 -232z"/>
<path d="M4790 4445 c-15 -19 -4 -52 21 -60 38 -12 65 35 37 63 -16 16 -43 15
-58 -3z"/>
<path d="M4461 4126 l-42 -43 31 -27 c17 -14 37 -26 45 -26 17 0 38 27 30 40
-3 6 3 10 14 10 14 0 21 6 21 19 0 19 -36 71 -49 71 -4 0 -26 -20 -50 -44z
m63 -17 c-3 -5 -10 -7 -15 -3 -5 3 -7 10 -3 15 3 5 10 7 15 3 5 -3 7 -10 3
-15z m-29 -29 c3 -5 -1 -10 -9 -10 -9 0 -16 5 -16 10 0 6 4 10 9 10 6 0 13 -4
16 -10z"/>
<path d="M4537 4040 c-26 -30 -27 -60 -2 -60 7 0 15 -10 18 -22 6 -22 7 -22
41 11 28 27 33 37 24 48 -9 11 -15 10 -34 -8 -31 -29 -44 -16 -15 15 18 19 20
25 7 35 -11 9 -19 6 -39 -19z"/>
<path d="M4625 3970 c-41 -42 -46 -50 -31 -56 26 -10 113 78 93 94 -10 9 -23
1 -62 -38z"/>
<path d="M4662 3937 c-39 -39 -41 -45 -27 -57 14 -12 22 -8 57 27 27 27 39 47
35 57 -9 24 -19 20 -65 -27z"/>
<path d="M4686 3881 c-3 -4 3 -16 13 -25 22 -20 40 -4 21 19 -14 17 -26 19
-34 6z"/>
<path d="M4755 3840 l-39 -40 26 -26 c30 -31 60 -24 32 7 -9 10 -12 19 -6 19
6 0 14 -5 18 -11 4 -7 9 -8 17 0 7 7 7 14 -1 24 -15 18 -3 30 14 16 26 -21 37
2 13 27 -12 13 -25 24 -29 24 -3 0 -24 -18 -45 -40z"/>
<path d="M4822 3777 l-42 -43 29 -28 c20 -19 31 -24 36 -16 4 6 2 17 -4 23
-19 19 -12 31 8 13 23 -20 40 -4 20 20 -16 19 -4 30 16 14 10 -8 19 -10 25 -4
7 7 0 20 -18 37 l-28 27 -42 -43z"/>
<path d="M6202 5211 c-80 -88 -98 -123 -66 -135 22 -8 29 -3 123 96 86 91 98
120 51 126 -21 2 -41 -14 -108 -87z"/>
<path d="M7142 5097 c-30 -30 -43 -67 -24 -67 13 0 82 74 82 88 0 22 -26 13
-58 -21z"/>
<path d="M7217 5072 c-46 -47 -60 -82 -33 -82 17 0 107 101 103 114 -7 22 -25
14 -70 -32z"/>
<path d="M7282 5027 c-62 -63 -75 -87 -46 -87 18 0 133 119 134 138 0 26 -28
10 -88 -51z"/>
<path d="M6891 4966 l-84 -84 22 -63 c11 -35 21 -66 21 -70 0 -4 -15 -3 -34 2
-41 11 -116 -3 -161 -31 -16 -10 -105 -94 -196 -187 -131 -133 -170 -178 -184
-215 -51 -137 44 -284 190 -296 93 -8 130 17 328 216 164 166 176 181 192 236
13 45 15 67 7 97 -5 21 -7 39 -3 39 4 0 35 -10 70 -21 l63 -22 84 84 c46 46
84 89 84 95 0 7 -41 26 -92 43 -50 17 -102 40 -114 52 -13 13 -37 62 -54 115
-18 52 -37 94 -44 94 -6 0 -49 -38 -95 -84z m108 -38 l21 -62 -57 -58 c-32
-32 -60 -58 -64 -58 -3 0 -14 27 -24 60 l-18 61 58 59 c33 33 60 60 61 60 1 0
12 -28 23 -62z m10 -184 c-50 -50 -66 -61 -76 -52 -12 9 -2 23 48 74 50 50 66
61 76 52 12 -9 2 -23 -48 -74z m170 11 l53 -17 -60 -61 -61 -61 -60 19 c-34
10 -61 21 -61 24 0 12 115 121 125 118 5 -2 34 -12 64 -22z m-319 -60 c58 -30
93 -89 93 -160 0 -40 -23 -115 -36 -115 -1 0 -60 58 -131 129 -127 127 -128
129 -105 142 56 29 125 31 179 4z m15 -314 c-13 -14 -25 -6 -99 68 -77 76
-106 92 -106 58 0 -7 36 -48 80 -92 63 -63 77 -82 68 -93 -9 -11 -36 11 -140
115 l-128 127 42 43 42 43 128 -127 c113 -113 126 -129 113 -142z m-225 24
l125 -125 -90 -90 -90 -90 -127 127 -128 128 87 87 c48 49 90 88 93 88 3 0 61
-56 130 -125z m-210 -210 c63 -63 111 -117 107 -121 -4 -4 -28 -9 -54 -11 -87
-8 -173 57 -189 143 -7 37 2 104 14 104 4 0 59 -52 122 -115z"/>
<path d="M6614 4569 c-8 -14 11 -33 25 -25 6 4 11 14 11 22 0 16 -26 19 -36 3z"/>
<path d="M6439 4424 c-24 -25 -24 -26 -4 -40 21 -16 41 -13 38 5 -2 6 2 11 7
11 15 0 12 26 -3 39 -11 8 -19 5 -38 -15z"/>
<path d="M6482 4378 c-16 -16 -15 -26 2 -43 12 -12 16 -11 30 4 19 21 9 36
-12 18 -13 -10 -14 -8 -8 11 8 25 5 27 -12 10z"/>
<path d="M6527 4342 c-28 -30 -20 -49 8 -22 25 24 32 40 17 40 -5 0 -16 -8
-25 -18z"/>
<path d="M6545 4320 c-10 -11 -15 -23 -12 -27 8 -7 47 25 47 39 0 14 -16 9
-35 -12z"/>
<path d="M6565 4280 c3 -5 8 -10 11 -10 2 0 4 5 4 10 0 6 -5 10 -11 10 -5 0
-7 -4 -4 -10z"/>
<path d="M6595 4270 c-18 -20 -18 -21 0 -38 17 -16 17 -16 12 0 -4 12 -2 15 9
11 10 -4 12 0 8 11 -5 13 -2 15 12 9 17 -6 17 -5 5 10 -17 22 -24 21 -46 -3z"/>
<path d="M6635 4230 c-18 -20 -18 -21 0 -38 17 -16 17 -16 12 0 -4 12 -2 15 9
11 10 -4 12 0 8 11 -5 13 -2 15 12 9 17 -6 17 -5 5 10 -17 22 -24 21 -46 -3z"/>
<path d="M7303 4940 c-44 -49 -53 -70 -30 -70 16 0 107 91 107 108 0 26 -37 9
-77 -38z"/>
</g>
</svg>
